# xmcd
#
# Track frame offsets:
# 150
# 37023
# 73896
# 110769
# 147642
# 184515
# 221388
# 258261
# 295134
#
# Disc length: 4426 seconds
#
#
# Revision: 0
# Processed by: cddbd v1.5PL3 Copyright (c) Steve Scherf et al.
# Submitted via: FreeRIP 2.40 
#
DISCID=91114809
DTITLE=When The Sun Goes Down - When The Sun Goes Down
DYEAR=2004
DGENRE=Pop
TTITLE0=When The Sun Goes Down
TTITLE1=When The Sun Goes Down
TTITLE2=When The Sun Goes Down
TTITLE3=When The Sun Goes Down
TTITLE4=When The Sun Goes Down
TTITLE5=When The Sun Goes Down
TTITLE6=When The Sun Goes Down
TTITLE7=When The Sun Goes Down
TTITLE8=When The Sun Goes Down
EXTD=FULL VERSION - When The Sun Goes Down
EXTT0=FULL VERSION - When The Sun Goes Down
EXTT1=FULL VERSION - When The Sun Goes Down
EXTT2=FULL VERSION - When The Sun Goes Down
EXTT3=FULL VERSION - When The Sun Goes Down
EXTT4=FULL VERSION - When The Sun Goes Down
EXTT5=FULL VERSION - When The Sun Goes Down
EXTT6=FULL VERSION - When The Sun Goes Down
EXTT7=FULL VERSION - When The Sun Goes Down
EXTT8=FULL VERSION - When The Sun Goes Down
PLAYORDER=
